<?xml version="1.0" standalone="no"?>
<!DOCTYPE svg PUBLIC "-//W3C//DTD SVG 20010904//EN"
 "http://www.w3.org/TR/2001/REC-SVG-20010904/DTD/svg10.dtd">
<svg version="1.0" xmlns="http://www.w3.org/2000/svg"
 width="1760.000000pt" height="2400.000000pt" viewBox="0 0 1760.000000 2400.000000"
 preserveAspectRatio="xMidYMid meet">

<g transform="translate(0.000000,2400.000000) scale(0.100000,-0.100000)"
fill="#4F46E5" stroke="none">
<path d="M8445 23990 c-294 -17 -473 -32 -660 -57 -104 -13 -226 -29 -270 -34
-44 -5 -147 -23 -230 -40 -82 -17 -181 -37 -220 -44 -109 -20 -238 -51 -395
-94 -41 -11 -100 -27 -130 -35 -30 -8 -77 -21 -105 -30 -27 -9 -63 -20 -80
-25 -178 -54 -272 -85 -279 -92 -6 -5 -18 -9 -29 -9 -37 0 -466 -164 -642
-245 -38 -18 -90 -40 -115 -50 -25 -10 -61 -24 -80 -33 -62 -26 -372 -182
-399 -200 -14 -10 -44 -27 -66 -37 -22 -10 -92 -47 -155 -83 -63 -36 -134 -76
-157 -88 -22 -13 -79 -49 -125 -79 -45 -31 -98 -63 -115 -72 -18 -8 -33 -19
-33 -24 0 -5 -4 -9 -9 -9 -4 0 -62 -36 -127 -80 -183 -123 -237 -161 -265
-186 -14 -13 -28 -24 -32 -24 -4 0 -35 -21 -68 -47 -34 -27 -95 -73 -135 -104
-396 -302 -854 -729 -1220 -1137 -71 -79 -133 -151 -138 -160 -5 -10 -27 -36
-49 -59 -22 -23 -47 -53 -55 -65 -8 -13 -30 -39 -48 -58 -32 -34 -87 -104
-234 -297 -59 -77 -181 -251 -215 -305 -5 -8 -39 -60 -76 -114 -70 -107 -148
-227 -164 -255 -5 -10 -40 -69 -77 -131 -36 -62 -85 -149 -108 -193 -23 -44
-46 -84 -50 -90 -4 -5 -33 -59 -65 -120 -32 -60 -62 -117 -66 -125 -30 -55
-184 -385 -205 -439 -14 -36 -37 -90 -50 -119 -13 -29 -24 -56 -24 -60 0 -4
-6 -19 -14 -33 -7 -14 -30 -71 -51 -125 -20 -54 -43 -112 -50 -129 -16 -35
-79 -209 -101 -275 -8 -25 -19 -54 -24 -65 -4 -11 -16 -47 -25 -80 -9 -33 -21
-70 -26 -83 -5 -13 -9 -32 -9 -43 0 -10 -4 -27 -9 -37 -5 -9 -15 -37 -21 -62
-17 -62 -26 -93 -55 -185 -40 -132 -90 -338 -169 -705 -39 -181 -79 -447 -106
-705 -18 -174 -20 -268 -20 -1094 0 -560 4 -938 10 -995 6 -50 15 -125 20
-166 5 -41 19 -149 30 -240 21 -169 44 -308 81 -485 11 -55 24 -120 29 -145
11 -61 41 -194 72 -320 21 -88 86 -328 119 -435 10 -33 29 -100 44 -150 39
-137 66 -228 75 -251 4 -11 29 -85 55 -165 27 -79 51 -148 55 -154 4 -5 15
-37 25 -70 10 -33 21 -64 25 -70 5 -5 20 -46 35 -90 14 -44 33 -93 40 -110 23
-50 105 -259 105 -267 0 -4 25 -58 55 -120 30 -62 55 -118 55 -125 0 -7 8 -27
18 -45 10 -18 29 -58 41 -88 46 -109 172 -371 240 -500 16 -30 41 -80 56 -110
15 -30 40 -77 55 -105 16 -27 29 -57 29 -67 1 -9 5 -18 9 -20 4 -1 23 -34 42
-72 18 -37 44 -84 57 -103 13 -18 23 -38 23 -44 0 -5 11 -27 25 -49 14 -22 25
-43 25 -48 0 -5 9 -17 20 -27 11 -10 20 -26 20 -37 0 -10 5 -18 10 -18 6 0 10
-9 10 -20 0 -11 5 -20 10 -20 6 0 10 -6 11 -12 0 -7 14 -33 29 -58 16 -25 38
-64 50 -87 11 -23 24 -44 29 -47 5 -4 19 -27 32 -54 12 -26 25 -49 29 -52 3
-3 11 -16 18 -30 7 -14 26 -47 42 -75 17 -27 35 -60 40 -72 5 -11 14 -24 20
-28 6 -4 15 -17 20 -28 6 -12 21 -40 34 -62 14 -22 33 -55 42 -72 9 -18 19
-33 23 -33 3 0 12 -15 20 -32 8 -18 25 -47 38 -64 13 -17 23 -35 23 -41 0 -5
9 -18 20 -28 11 -10 20 -22 20 -28 0 -5 16 -32 35 -58 19 -27 35 -52 35 -55 0
-3 26 -44 58 -91 31 -46 62 -93 68 -104 6 -10 18 -27 27 -37 10 -10 17 -23 17
-28 0 -6 8 -19 19 -30 10 -11 31 -42 46 -70 42 -76 115 -188 172 -266 29 -39
53 -74 53 -78 0 -3 8 -15 17 -26 10 -10 27 -36 38 -57 11 -21 27 -46 36 -56 9
-10 28 -35 41 -57 14 -22 33 -46 42 -53 9 -8 26 -33 36 -55 10 -23 29 -52 42
-66 13 -14 46 -58 73 -99 28 -41 56 -83 64 -95 8 -12 26 -33 39 -48 14 -15 30
-35 36 -46 23 -39 65 -98 85 -119 12 -12 21 -25 21 -29 0 -4 16 -26 35 -50 19
-23 35 -45 35 -49 0 -3 13 -20 30 -38 16 -18 30 -37 30 -43 0 -5 14 -23 31
-40 17 -16 37 -44 46 -61 8 -18 19 -33 24 -33 5 0 9 -6 9 -12 0 -7 16 -30 35
-51 19 -21 35 -41 35 -44 0 -3 20 -30 45 -59 25 -28 45 -57 45 -62 0 -6 4 -12
8 -14 8 -3 89 -108 107 -139 6 -10 24 -32 40 -51 17 -18 43 -52 59 -76 16 -23
33 -42 37 -42 5 0 9 -5 9 -11 0 -6 9 -23 20 -37 97 -126 215 -275 249 -313 22
-25 41 -51 41 -56 0 -6 7 -17 17 -24 9 -8 33 -36 54 -64 20 -27 48 -62 61 -77
13 -14 52 -63 88 -108 36 -45 81 -100 100 -124 19 -24 60 -74 90 -111 30 -38
76 -93 103 -122 26 -29 47 -57 47 -61 0 -4 22 -30 49 -58 26 -28 50 -56 52
-62 4 -9 46 -59 201 -235 24 -27 54 -64 68 -82 23 -31 47 -59 176 -203 27 -31
99 -115 159 -187 61 -71 137 -160 170 -196 33 -36 98 -111 145 -165 47 -54
121 -138 165 -186 88 -96 225 -250 254 -286 10 -12 23 -22 28 -22 6 0 14 -9
19 -19 5 -11 70 -83 144 -161 74 -78 143 -154 155 -169 30 -41 248 -274 435
-464 91 -92 169 -177 175 -187 6 -11 216 -226 468 -479 251 -252 457 -464 457
-470 0 -6 5 -11 11 -11 7 0 41 -32 78 -72 36 -39 74 -79 84 -87 11 -9 125
-121 255 -248 197 -194 242 -233 266 -233 34 0 44 9 603 565 222 220 403 405
403 410 0 6 15 21 32 35 18 14 71 65 118 114 47 49 177 184 290 299 113 116
230 235 260 266 107 110 367 389 560 601 52 57 125 136 161 174 89 97 188 206
289 321 47 53 117 131 156 173 39 42 96 105 125 139 48 55 248 281 407 462 32
35 64 72 72 83 8 11 32 38 53 61 46 50 170 195 212 247 17 20 54 66 84 101 29
35 72 86 95 114 22 27 68 81 102 120 33 38 111 133 173 210 269 332 347 430
371 461 31 41 194 249 276 353 83 105 420 545 462 604 12 18 28 39 35 48 7 8
17 22 22 31 6 8 31 44 57 79 26 35 78 106 115 157 37 52 78 106 91 122 12 15
22 32 22 38 0 6 4 12 8 14 13 5 212 281 212 293 0 3 9 16 21 28 12 12 42 53
67 91 26 38 54 79 62 91 8 12 28 42 45 66 16 24 32 46 36 49 4 4 162 242 224
340 27 41 100 153 168 254 26 39 50 78 54 86 4 8 22 36 40 61 18 26 33 51 33
56 0 6 9 18 20 28 11 10 20 22 20 27 0 5 17 34 38 65 20 31 48 76 62 99 32 55
136 228 165 274 39 62 64 104 91 155 14 28 32 57 39 65 7 8 27 42 44 75 18 33
42 76 53 95 155 264 570 1074 651 1270 13 33 25 58 98 218 16 35 29 67 29 72
0 5 11 29 24 55 14 25 30 62 37 83 6 20 22 60 34 87 12 28 32 77 45 110 12 33
28 74 35 90 8 17 23 59 36 95 12 36 25 70 29 75 4 6 55 152 113 325 90 267
145 449 232 770 8 30 23 87 34 125 24 85 105 458 126 575 8 47 22 123 30 170
9 47 20 114 26 149 5 35 12 73 14 85 3 11 16 111 30 221 l25 200 0 1055 c0
1192 3 1133 -80 1615 -12 66 -25 138 -30 160 -5 22 -17 76 -26 120 -22 110
-149 630 -167 685 -8 25 -29 92 -47 150 -61 198 -93 295 -156 470 -88 245
-114 311 -174 445 -10 22 -30 69 -45 105 -15 36 -38 89 -51 118 -13 28 -35 78
-49 110 -14 31 -30 64 -35 72 -22 36 -90 178 -90 187 0 6 -3 13 -8 15 -4 2
-40 68 -81 148 -41 80 -82 157 -92 172 -11 14 -19 28 -19 31 0 16 -224 388
-330 547 -140 211 -283 413 -325 461 -18 19 -51 62 -75 95 -24 32 -46 61 -50
64 -3 3 -28 34 -55 70 -189 247 -618 702 -930 988 -88 81 -179 164 -201 185
-23 21 -82 70 -130 109 -49 39 -126 102 -171 140 -45 37 -85 68 -89 68 -3 0
-24 15 -45 33 -88 75 -293 225 -419 307 -21 14 -77 51 -124 83 -47 31 -87 57
-90 57 -3 0 -28 16 -55 35 -26 19 -51 35 -55 35 -3 0 -32 17 -64 38 -31 20
-66 42 -77 49 -68 41 -142 82 -225 126 -52 28 -129 69 -170 92 -78 43 -210
107 -295 145 -27 12 -66 29 -85 38 -19 8 -62 27 -95 42 -139 64 -176 80 -184
80 -9 0 -112 44 -143 61 -10 5 -26 9 -36 9 -10 0 -22 4 -27 9 -10 9 -98 42
-250 93 -49 17 -99 34 -110 39 -26 10 -150 53 -196 67 -19 7 -45 12 -57 12
-11 0 -23 4 -26 9 -3 5 -18 11 -33 14 -16 3 -59 15 -98 27 -141 43 -205 60
-234 60 -17 0 -33 5 -36 10 -3 6 -19 10 -36 10 -16 0 -37 4 -47 9 -9 5 -51 16
-92 25 -100 21 -255 55 -305 66 -22 5 -71 14 -110 20 -38 6 -95 15 -125 20
-146 24 -197 32 -350 50 -91 10 -237 24 -325 30 -88 6 -180 12 -205 15 -102 9
-686 13 -825 5z m760 -1775 c512 -28 847 -81 1370 -217 551 -143 1067 -350
1600 -643 313 -172 681 -416 940 -624 412 -329 843 -753 1120 -1101 33 -41 62
-77 65 -80 29 -27 214 -282 330 -453 185 -276 435 -726 564 -1017 129 -290
172 -400 257 -650 158 -463 278 -968 329 -1375 6 -49 15 -124 20 -165 61 -485
59 -1172 -6 -1700 -68 -566 -182 -1027 -399 -1625 -40 -110 -96 -254 -125
-320 -75 -174 -299 -623 -371 -745 -103 -175 -293 -470 -377 -585 -24 -33 -51
-71 -60 -84 -33 -46 -246 -317 -296 -376 -28 -33 -60 -71 -71 -84 -167 -207
-597 -632 -831 -821 -43 -35 -81 -67 -84 -70 -16 -20 -354 -270 -480 -356
-288 -197 -506 -324 -845 -492 -650 -323 -1289 -523 -2065 -646 -471 -75
-1209 -86 -1760 -26 -232 26 -637 101 -885 165 -133 34 -378 102 -405 112 -8
3 -96 33 -195 68 -202 70 -387 144 -604 242 -276 124 -680 349 -957 534 -76
50 -324 228 -334 239 -3 3 -32 25 -65 49 -33 25 -62 47 -65 51 -3 3 -52 44
-110 90 -58 47 -123 101 -145 121 -22 20 -69 62 -105 94 -174 155 -475 462
-614 625 -54 63 -120 140 -147 171 -144 168 -433 579 -599 854 -384 634 -677
1358 -835 2060 -19 88 -40 176 -45 196 -6 20 -17 74 -25 120 -187 1027 -152
2111 101 3104 93 365 252 828 382 1115 11 25 43 97 72 160 83 185 263 524 355
670 12 19 53 85 91 145 412 666 967 1276 1644 1809 581 458 1311 857 1995
1092 626 215 1306 348 1895 370 96 3 177 8 179 10 10 9 354 3 596 -11z"/>
<path d="M8488 21695 c-2 -1 -39 -5 -83 -9 -326 -27 -423 -38 -665 -77 -729
-117 -1424 -368 -2131 -767 -170 -96 -463 -288 -636 -418 -464 -349 -851 -718
-1174 -1119 -267 -333 -466 -624 -639 -940 -18 -33 -36 -64 -41 -70 -13 -18
-216 -427 -247 -500 -194 -450 -322 -840 -418 -1270 -75 -338 -134 -770 -149
-1087 -45 -951 90 -1836 413 -2703 97 -261 285 -668 401 -868 28 -49 51 -90
51 -92 0 -8 129 -219 198 -325 171 -262 344 -492 550 -735 134 -157 581 -598
747 -736 498 -416 979 -719 1535 -971 881 -400 1921 -602 2870 -559 135 7 277
16 315 21 39 5 97 12 130 15 690 72 1416 283 2080 604 1003 485 1895 1252
2552 2196 352 507 642 1090 842 1695 123 373 179 601 245 990 66 391 89 655
90 1045 2 576 -45 1002 -170 1560 -219 974 -687 1938 -1316 2714 -196 242
-482 540 -729 761 -658 589 -1453 1049 -2299 1330 -152 51 -501 147 -620 171
-332 68 -552 101 -780 119 -69 5 -181 14 -250 20 -108 9 -662 14 -672 5z
m1097 -3115 c249 -24 455 -68 710 -151 478 -157 898 -448 1198 -834 176 -226
319 -497 407 -772 251 -783 199 -1666 -139 -2348 -49 -99 -115 -220 -148 -270
-335 -508 -823 -866 -1428 -1050 -193 -58 -316 -82 -620 -120 -27 -4 -347 -8
-710 -10 l-660 -4 -6 -528 c-6 -570 -5 -561 -65 -728 -67 -189 -232 -399 -403
-512 -68 -46 -188 -104 -267 -131 -133 -45 -214 -52 -638 -52 l-398 0 5 453
c6 561 30 817 108 1172 40 183 141 514 188 619 11 23 34 77 52 121 90 218 278
559 440 795 70 103 238 317 340 436 97 112 361 382 437 448 24 21 42 39 40 42
-2 2 -40 -21 -84 -52 -218 -152 -546 -315 -759 -375 -91 -26 -273 -36 -356
-20 -146 29 -263 119 -329 255 -81 164 -75 43 -75 1586 l0 1375 23 85 c76 286
268 478 562 562 19 5 116 13 215 16 289 11 2235 4 2360 -8z"/>
<path d="M10615 17264 c-27 -8 -77 -23 -110 -33 -33 -10 -125 -38 -205 -61
-137 -40 -376 -112 -660 -200 -69 -21 -177 -53 -240 -70 -116 -33 -251 -73
-905 -270 -198 -60 -499 -149 -670 -199 -170 -50 -324 -98 -342 -107 -63 -33
-80 -126 -30 -171 12 -11 141 -92 287 -180 146 -88 319 -192 385 -233 l120
-73 40 23 c84 47 400 229 640 369 138 80 279 161 315 181 36 20 251 143 478
273 227 130 418 237 425 237 13 -1 -23 -35 -188 -178 -55 -48 -102 -89 -105
-92 -3 -3 -34 -30 -70 -60 -71 -59 -196 -168 -275 -240 -65 -58 -150 -132
-355 -310 -91 -78 -185 -160 -210 -182 -25 -22 -101 -88 -170 -146 -217 -185
-202 -165 -240 -327 -17 -77 -56 -240 -86 -362 -29 -123 -51 -229 -48 -237 7
-19 36 -28 59 -20 10 4 122 91 249 192 126 102 235 185 242 186 6 1 135 -121
287 -270 152 -149 293 -279 313 -289 26 -12 48 -15 80 -10 65 9 98 43 134 136
17 44 122 310 234 592 112 282 225 566 251 632 26 66 102 260 170 430 67 171
146 371 175 445 29 74 74 187 100 250 109 266 113 280 88 335 -13 30 -56 55
-90 54 -13 0 -45 -7 -73 -15z"/>
</g>
</svg>
